%TF.GenerationSoftware,KiCad,Pcbnew,7.0.10*%
%TF.CreationDate,2024-02-11T22:45:08-05:00*%
%TF.ProjectId,bearing_inner_bottom,62656172-696e-4675-9f69-6e6e65725f62,rev?*%
%TF.SameCoordinates,Original*%
%TF.FileFunction,Legend,Top*%
%TF.FilePolarity,Positive*%
%FSLAX46Y46*%
G04 Gerber Fmt 4.6, Leading zero omitted, Abs format (unit mm)*
G04 Created by KiCad (PCBNEW 7.0.10) date 2024-02-11 22:45:08*
%MOMM*%
%LPD*%
G01*
G04 APERTURE LIST*
%ADD10C,0.150000*%
%ADD11C,0.100000*%
%ADD12C,0.120000*%
G04 APERTURE END LIST*
D10*
X60000000Y-50000000D02*
G75*
G03*
X40000000Y-50000000I-10000000J0D01*
G01*
X40000000Y-50000000D02*
G75*
G03*
X60000000Y-50000000I10000000J0D01*
G01*
X99000000Y-50000000D02*
G75*
G03*
X1000000Y-50000000I-49000000J0D01*
G01*
X1000000Y-50000000D02*
G75*
G03*
X99000000Y-50000000I49000000J0D01*
G01*
X70000000Y-50000000D02*
G75*
G03*
X30000000Y-50000000I-20000000J0D01*
G01*
X30000000Y-50000000D02*
G75*
G03*
X70000000Y-50000000I20000000J0D01*
G01*
D11*
X27214285Y-54957419D02*
X27214285Y-55671704D01*
X27214285Y-55671704D02*
X27166666Y-55814561D01*
X27166666Y-55814561D02*
X27071428Y-55909800D01*
X27071428Y-55909800D02*
X26928571Y-55957419D01*
X26928571Y-55957419D02*
X26833333Y-55957419D01*
X28214285Y-55957419D02*
X27642857Y-55957419D01*
X27928571Y-55957419D02*
X27928571Y-54957419D01*
X27928571Y-54957419D02*
X27833333Y-55100276D01*
X27833333Y-55100276D02*
X27738095Y-55195514D01*
X27738095Y-55195514D02*
X27642857Y-55243133D01*
X28833333Y-54957419D02*
X28928571Y-54957419D01*
X28928571Y-54957419D02*
X29023809Y-55005038D01*
X29023809Y-55005038D02*
X29071428Y-55052657D01*
X29071428Y-55052657D02*
X29119047Y-55147895D01*
X29119047Y-55147895D02*
X29166666Y-55338371D01*
X29166666Y-55338371D02*
X29166666Y-55576466D01*
X29166666Y-55576466D02*
X29119047Y-55766942D01*
X29119047Y-55766942D02*
X29071428Y-55862180D01*
X29071428Y-55862180D02*
X29023809Y-55909800D01*
X29023809Y-55909800D02*
X28928571Y-55957419D01*
X28928571Y-55957419D02*
X28833333Y-55957419D01*
X28833333Y-55957419D02*
X28738095Y-55909800D01*
X28738095Y-55909800D02*
X28690476Y-55862180D01*
X28690476Y-55862180D02*
X28642857Y-55766942D01*
X28642857Y-55766942D02*
X28595238Y-55576466D01*
X28595238Y-55576466D02*
X28595238Y-55338371D01*
X28595238Y-55338371D02*
X28642857Y-55147895D01*
X28642857Y-55147895D02*
X28690476Y-55052657D01*
X28690476Y-55052657D02*
X28738095Y-55005038D01*
X28738095Y-55005038D02*
X28833333Y-54957419D01*
X29500000Y-54957419D02*
X30166666Y-54957419D01*
X30166666Y-54957419D02*
X29738095Y-55957419D01*
X56714285Y-74957419D02*
X56714285Y-75671704D01*
X56714285Y-75671704D02*
X56666666Y-75814561D01*
X56666666Y-75814561D02*
X56571428Y-75909800D01*
X56571428Y-75909800D02*
X56428571Y-75957419D01*
X56428571Y-75957419D02*
X56333333Y-75957419D01*
X57714285Y-75957419D02*
X57142857Y-75957419D01*
X57428571Y-75957419D02*
X57428571Y-74957419D01*
X57428571Y-74957419D02*
X57333333Y-75100276D01*
X57333333Y-75100276D02*
X57238095Y-75195514D01*
X57238095Y-75195514D02*
X57142857Y-75243133D01*
X58333333Y-74957419D02*
X58428571Y-74957419D01*
X58428571Y-74957419D02*
X58523809Y-75005038D01*
X58523809Y-75005038D02*
X58571428Y-75052657D01*
X58571428Y-75052657D02*
X58619047Y-75147895D01*
X58619047Y-75147895D02*
X58666666Y-75338371D01*
X58666666Y-75338371D02*
X58666666Y-75576466D01*
X58666666Y-75576466D02*
X58619047Y-75766942D01*
X58619047Y-75766942D02*
X58571428Y-75862180D01*
X58571428Y-75862180D02*
X58523809Y-75909800D01*
X58523809Y-75909800D02*
X58428571Y-75957419D01*
X58428571Y-75957419D02*
X58333333Y-75957419D01*
X58333333Y-75957419D02*
X58238095Y-75909800D01*
X58238095Y-75909800D02*
X58190476Y-75862180D01*
X58190476Y-75862180D02*
X58142857Y-75766942D01*
X58142857Y-75766942D02*
X58095238Y-75576466D01*
X58095238Y-75576466D02*
X58095238Y-75338371D01*
X58095238Y-75338371D02*
X58142857Y-75147895D01*
X58142857Y-75147895D02*
X58190476Y-75052657D01*
X58190476Y-75052657D02*
X58238095Y-75005038D01*
X58238095Y-75005038D02*
X58333333Y-74957419D01*
X59523809Y-74957419D02*
X59333333Y-74957419D01*
X59333333Y-74957419D02*
X59238095Y-75005038D01*
X59238095Y-75005038D02*
X59190476Y-75052657D01*
X59190476Y-75052657D02*
X59095238Y-75195514D01*
X59095238Y-75195514D02*
X59047619Y-75385990D01*
X59047619Y-75385990D02*
X59047619Y-75766942D01*
X59047619Y-75766942D02*
X59095238Y-75862180D01*
X59095238Y-75862180D02*
X59142857Y-75909800D01*
X59142857Y-75909800D02*
X59238095Y-75957419D01*
X59238095Y-75957419D02*
X59428571Y-75957419D01*
X59428571Y-75957419D02*
X59523809Y-75909800D01*
X59523809Y-75909800D02*
X59571428Y-75862180D01*
X59571428Y-75862180D02*
X59619047Y-75766942D01*
X59619047Y-75766942D02*
X59619047Y-75528847D01*
X59619047Y-75528847D02*
X59571428Y-75433609D01*
X59571428Y-75433609D02*
X59523809Y-75385990D01*
X59523809Y-75385990D02*
X59428571Y-75338371D01*
X59428571Y-75338371D02*
X59238095Y-75338371D01*
X59238095Y-75338371D02*
X59142857Y-75385990D01*
X59142857Y-75385990D02*
X59095238Y-75433609D01*
X59095238Y-75433609D02*
X59047619Y-75528847D01*
X26214285Y-45957419D02*
X26214285Y-46671704D01*
X26214285Y-46671704D02*
X26166666Y-46814561D01*
X26166666Y-46814561D02*
X26071428Y-46909800D01*
X26071428Y-46909800D02*
X25928571Y-46957419D01*
X25928571Y-46957419D02*
X25833333Y-46957419D01*
X27214285Y-46957419D02*
X26642857Y-46957419D01*
X26928571Y-46957419D02*
X26928571Y-45957419D01*
X26928571Y-45957419D02*
X26833333Y-46100276D01*
X26833333Y-46100276D02*
X26738095Y-46195514D01*
X26738095Y-46195514D02*
X26642857Y-46243133D01*
X27833333Y-45957419D02*
X27928571Y-45957419D01*
X27928571Y-45957419D02*
X28023809Y-46005038D01*
X28023809Y-46005038D02*
X28071428Y-46052657D01*
X28071428Y-46052657D02*
X28119047Y-46147895D01*
X28119047Y-46147895D02*
X28166666Y-46338371D01*
X28166666Y-46338371D02*
X28166666Y-46576466D01*
X28166666Y-46576466D02*
X28119047Y-46766942D01*
X28119047Y-46766942D02*
X28071428Y-46862180D01*
X28071428Y-46862180D02*
X28023809Y-46909800D01*
X28023809Y-46909800D02*
X27928571Y-46957419D01*
X27928571Y-46957419D02*
X27833333Y-46957419D01*
X27833333Y-46957419D02*
X27738095Y-46909800D01*
X27738095Y-46909800D02*
X27690476Y-46862180D01*
X27690476Y-46862180D02*
X27642857Y-46766942D01*
X27642857Y-46766942D02*
X27595238Y-46576466D01*
X27595238Y-46576466D02*
X27595238Y-46338371D01*
X27595238Y-46338371D02*
X27642857Y-46147895D01*
X27642857Y-46147895D02*
X27690476Y-46052657D01*
X27690476Y-46052657D02*
X27738095Y-46005038D01*
X27738095Y-46005038D02*
X27833333Y-45957419D01*
X29023809Y-46290752D02*
X29023809Y-46957419D01*
X28785714Y-45909800D02*
X28547619Y-46624085D01*
X28547619Y-46624085D02*
X29166666Y-46624085D01*
X56214285Y-25457419D02*
X56214285Y-26171704D01*
X56214285Y-26171704D02*
X56166666Y-26314561D01*
X56166666Y-26314561D02*
X56071428Y-26409800D01*
X56071428Y-26409800D02*
X55928571Y-26457419D01*
X55928571Y-26457419D02*
X55833333Y-26457419D01*
X57214285Y-26457419D02*
X56642857Y-26457419D01*
X56928571Y-26457419D02*
X56928571Y-25457419D01*
X56928571Y-25457419D02*
X56833333Y-25600276D01*
X56833333Y-25600276D02*
X56738095Y-25695514D01*
X56738095Y-25695514D02*
X56642857Y-25743133D01*
X57833333Y-25457419D02*
X57928571Y-25457419D01*
X57928571Y-25457419D02*
X58023809Y-25505038D01*
X58023809Y-25505038D02*
X58071428Y-25552657D01*
X58071428Y-25552657D02*
X58119047Y-25647895D01*
X58119047Y-25647895D02*
X58166666Y-25838371D01*
X58166666Y-25838371D02*
X58166666Y-26076466D01*
X58166666Y-26076466D02*
X58119047Y-26266942D01*
X58119047Y-26266942D02*
X58071428Y-26362180D01*
X58071428Y-26362180D02*
X58023809Y-26409800D01*
X58023809Y-26409800D02*
X57928571Y-26457419D01*
X57928571Y-26457419D02*
X57833333Y-26457419D01*
X57833333Y-26457419D02*
X57738095Y-26409800D01*
X57738095Y-26409800D02*
X57690476Y-26362180D01*
X57690476Y-26362180D02*
X57642857Y-26266942D01*
X57642857Y-26266942D02*
X57595238Y-26076466D01*
X57595238Y-26076466D02*
X57595238Y-25838371D01*
X57595238Y-25838371D02*
X57642857Y-25647895D01*
X57642857Y-25647895D02*
X57690476Y-25552657D01*
X57690476Y-25552657D02*
X57738095Y-25505038D01*
X57738095Y-25505038D02*
X57833333Y-25457419D01*
X59071428Y-25457419D02*
X58595238Y-25457419D01*
X58595238Y-25457419D02*
X58547619Y-25933609D01*
X58547619Y-25933609D02*
X58595238Y-25885990D01*
X58595238Y-25885990D02*
X58690476Y-25838371D01*
X58690476Y-25838371D02*
X58928571Y-25838371D01*
X58928571Y-25838371D02*
X59023809Y-25885990D01*
X59023809Y-25885990D02*
X59071428Y-25933609D01*
X59071428Y-25933609D02*
X59119047Y-26028847D01*
X59119047Y-26028847D02*
X59119047Y-26266942D01*
X59119047Y-26266942D02*
X59071428Y-26362180D01*
X59071428Y-26362180D02*
X59023809Y-26409800D01*
X59023809Y-26409800D02*
X58928571Y-26457419D01*
X58928571Y-26457419D02*
X58690476Y-26457419D01*
X58690476Y-26457419D02*
X58595238Y-26409800D01*
X58595238Y-26409800D02*
X58547619Y-26362180D01*
X53214285Y-28457419D02*
X53214285Y-29171704D01*
X53214285Y-29171704D02*
X53166666Y-29314561D01*
X53166666Y-29314561D02*
X53071428Y-29409800D01*
X53071428Y-29409800D02*
X52928571Y-29457419D01*
X52928571Y-29457419D02*
X52833333Y-29457419D01*
X54214285Y-29457419D02*
X53642857Y-29457419D01*
X53928571Y-29457419D02*
X53928571Y-28457419D01*
X53928571Y-28457419D02*
X53833333Y-28600276D01*
X53833333Y-28600276D02*
X53738095Y-28695514D01*
X53738095Y-28695514D02*
X53642857Y-28743133D01*
X54833333Y-28457419D02*
X54928571Y-28457419D01*
X54928571Y-28457419D02*
X55023809Y-28505038D01*
X55023809Y-28505038D02*
X55071428Y-28552657D01*
X55071428Y-28552657D02*
X55119047Y-28647895D01*
X55119047Y-28647895D02*
X55166666Y-28838371D01*
X55166666Y-28838371D02*
X55166666Y-29076466D01*
X55166666Y-29076466D02*
X55119047Y-29266942D01*
X55119047Y-29266942D02*
X55071428Y-29362180D01*
X55071428Y-29362180D02*
X55023809Y-29409800D01*
X55023809Y-29409800D02*
X54928571Y-29457419D01*
X54928571Y-29457419D02*
X54833333Y-29457419D01*
X54833333Y-29457419D02*
X54738095Y-29409800D01*
X54738095Y-29409800D02*
X54690476Y-29362180D01*
X54690476Y-29362180D02*
X54642857Y-29266942D01*
X54642857Y-29266942D02*
X54595238Y-29076466D01*
X54595238Y-29076466D02*
X54595238Y-28838371D01*
X54595238Y-28838371D02*
X54642857Y-28647895D01*
X54642857Y-28647895D02*
X54690476Y-28552657D01*
X54690476Y-28552657D02*
X54738095Y-28505038D01*
X54738095Y-28505038D02*
X54833333Y-28457419D01*
X55738095Y-28885990D02*
X55642857Y-28838371D01*
X55642857Y-28838371D02*
X55595238Y-28790752D01*
X55595238Y-28790752D02*
X55547619Y-28695514D01*
X55547619Y-28695514D02*
X55547619Y-28647895D01*
X55547619Y-28647895D02*
X55595238Y-28552657D01*
X55595238Y-28552657D02*
X55642857Y-28505038D01*
X55642857Y-28505038D02*
X55738095Y-28457419D01*
X55738095Y-28457419D02*
X55928571Y-28457419D01*
X55928571Y-28457419D02*
X56023809Y-28505038D01*
X56023809Y-28505038D02*
X56071428Y-28552657D01*
X56071428Y-28552657D02*
X56119047Y-28647895D01*
X56119047Y-28647895D02*
X56119047Y-28695514D01*
X56119047Y-28695514D02*
X56071428Y-28790752D01*
X56071428Y-28790752D02*
X56023809Y-28838371D01*
X56023809Y-28838371D02*
X55928571Y-28885990D01*
X55928571Y-28885990D02*
X55738095Y-28885990D01*
X55738095Y-28885990D02*
X55642857Y-28933609D01*
X55642857Y-28933609D02*
X55595238Y-28981228D01*
X55595238Y-28981228D02*
X55547619Y-29076466D01*
X55547619Y-29076466D02*
X55547619Y-29266942D01*
X55547619Y-29266942D02*
X55595238Y-29362180D01*
X55595238Y-29362180D02*
X55642857Y-29409800D01*
X55642857Y-29409800D02*
X55738095Y-29457419D01*
X55738095Y-29457419D02*
X55928571Y-29457419D01*
X55928571Y-29457419D02*
X56023809Y-29409800D01*
X56023809Y-29409800D02*
X56071428Y-29362180D01*
X56071428Y-29362180D02*
X56119047Y-29266942D01*
X56119047Y-29266942D02*
X56119047Y-29076466D01*
X56119047Y-29076466D02*
X56071428Y-28981228D01*
X56071428Y-28981228D02*
X56023809Y-28933609D01*
X56023809Y-28933609D02*
X55928571Y-28885990D01*
D10*
X65885003Y-31840870D02*
X66503592Y-32198013D01*
X66503592Y-32198013D02*
X66603501Y-32310681D01*
X66603501Y-32310681D02*
X66638360Y-32440779D01*
X66638360Y-32440779D02*
X66608171Y-32588306D01*
X66608171Y-32588306D02*
X66560552Y-32670785D01*
X67251028Y-31474845D02*
X66965314Y-31969716D01*
X67108171Y-31722281D02*
X66242146Y-31222281D01*
X66242146Y-31222281D02*
X66318245Y-31376188D01*
X66318245Y-31376188D02*
X66353104Y-31506285D01*
X66353104Y-31506285D02*
X66346724Y-31612574D01*
X66694527Y-30438734D02*
X66742146Y-30356255D01*
X66742146Y-30356255D02*
X66831004Y-30297586D01*
X66831004Y-30297586D02*
X66896053Y-30280156D01*
X66896053Y-30280156D02*
X67002341Y-30286536D01*
X67002341Y-30286536D02*
X67191108Y-30340535D01*
X67191108Y-30340535D02*
X67397304Y-30459582D01*
X67397304Y-30459582D02*
X67538452Y-30596060D01*
X67538452Y-30596060D02*
X67597121Y-30684918D01*
X67597121Y-30684918D02*
X67614551Y-30749967D01*
X67614551Y-30749967D02*
X67608171Y-30856255D01*
X67608171Y-30856255D02*
X67560552Y-30938734D01*
X67560552Y-30938734D02*
X67471694Y-30997403D01*
X67471694Y-30997403D02*
X67406645Y-31014833D01*
X67406645Y-31014833D02*
X67300357Y-31008453D01*
X67300357Y-31008453D02*
X67111590Y-30954454D01*
X67111590Y-30954454D02*
X66905393Y-30835407D01*
X66905393Y-30835407D02*
X66764246Y-30698929D01*
X66764246Y-30698929D02*
X66705577Y-30610071D01*
X66705577Y-30610071D02*
X66688147Y-30545022D01*
X66688147Y-30545022D02*
X66694527Y-30438734D01*
X67134148Y-29867763D02*
X67116718Y-29802714D01*
X67116718Y-29802714D02*
X67123098Y-29696426D01*
X67123098Y-29696426D02*
X67242146Y-29490230D01*
X67242146Y-29490230D02*
X67331004Y-29431561D01*
X67331004Y-29431561D02*
X67396053Y-29414131D01*
X67396053Y-29414131D02*
X67502341Y-29420511D01*
X67502341Y-29420511D02*
X67584820Y-29468130D01*
X67584820Y-29468130D02*
X67684728Y-29580798D01*
X67684728Y-29580798D02*
X67893885Y-30361383D01*
X67893885Y-30361383D02*
X68203409Y-29825273D01*
X68329283Y-64113948D02*
X67710693Y-64471090D01*
X67710693Y-64471090D02*
X67563166Y-64501280D01*
X67563166Y-64501280D02*
X67433068Y-64466420D01*
X67433068Y-64466420D02*
X67320400Y-64366512D01*
X67320400Y-64366512D02*
X67272781Y-64284033D01*
X67963258Y-65479973D02*
X67677543Y-64985102D01*
X67820400Y-65232537D02*
X68686426Y-64732537D01*
X68686426Y-64732537D02*
X68515089Y-64721487D01*
X68515089Y-64721487D02*
X68384991Y-64686628D01*
X68384991Y-64686628D02*
X68296133Y-64627959D01*
X69138807Y-65516084D02*
X69186426Y-65598563D01*
X69186426Y-65598563D02*
X69192806Y-65704851D01*
X69192806Y-65704851D02*
X69175376Y-65769900D01*
X69175376Y-65769900D02*
X69116707Y-65858758D01*
X69116707Y-65858758D02*
X68975559Y-65995236D01*
X68975559Y-65995236D02*
X68769362Y-66114283D01*
X68769362Y-66114283D02*
X68580596Y-66168282D01*
X68580596Y-66168282D02*
X68474308Y-66174662D01*
X68474308Y-66174662D02*
X68409259Y-66157232D01*
X68409259Y-66157232D02*
X68320400Y-66098563D01*
X68320400Y-66098563D02*
X68272781Y-66016084D01*
X68272781Y-66016084D02*
X68266402Y-65909796D01*
X68266402Y-65909796D02*
X68283831Y-65844747D01*
X68283831Y-65844747D02*
X68342500Y-65755889D01*
X68342500Y-65755889D02*
X68483648Y-65619412D01*
X68483648Y-65619412D02*
X68689845Y-65500364D01*
X68689845Y-65500364D02*
X68878611Y-65446365D01*
X68878611Y-65446365D02*
X68984900Y-65439985D01*
X68984900Y-65439985D02*
X69049948Y-65457415D01*
X69049948Y-65457415D02*
X69138807Y-65516084D01*
X69472140Y-66093435D02*
X69781664Y-66629546D01*
X69781664Y-66629546D02*
X69285083Y-66531347D01*
X69285083Y-66531347D02*
X69356511Y-66655064D01*
X69356511Y-66655064D02*
X69362891Y-66761353D01*
X69362891Y-66761353D02*
X69345461Y-66826401D01*
X69345461Y-66826401D02*
X69286792Y-66915260D01*
X69286792Y-66915260D02*
X69080596Y-67034307D01*
X69080596Y-67034307D02*
X68974308Y-67040687D01*
X68974308Y-67040687D02*
X68909259Y-67023257D01*
X68909259Y-67023257D02*
X68820400Y-66964588D01*
X68820400Y-66964588D02*
X68677543Y-66717152D01*
X68677543Y-66717152D02*
X68671164Y-66610864D01*
X68671164Y-66610864D02*
X68688593Y-66545816D01*
D11*
X54714285Y-54769419D02*
X54714285Y-55483704D01*
X54714285Y-55483704D02*
X54666666Y-55626561D01*
X54666666Y-55626561D02*
X54571428Y-55721800D01*
X54571428Y-55721800D02*
X54428571Y-55769419D01*
X54428571Y-55769419D02*
X54333333Y-55769419D01*
X55714285Y-55769419D02*
X55142857Y-55769419D01*
X55428571Y-55769419D02*
X55428571Y-54769419D01*
X55428571Y-54769419D02*
X55333333Y-54912276D01*
X55333333Y-54912276D02*
X55238095Y-55007514D01*
X55238095Y-55007514D02*
X55142857Y-55055133D01*
X56333333Y-54769419D02*
X56428571Y-54769419D01*
X56428571Y-54769419D02*
X56523809Y-54817038D01*
X56523809Y-54817038D02*
X56571428Y-54864657D01*
X56571428Y-54864657D02*
X56619047Y-54959895D01*
X56619047Y-54959895D02*
X56666666Y-55150371D01*
X56666666Y-55150371D02*
X56666666Y-55388466D01*
X56666666Y-55388466D02*
X56619047Y-55578942D01*
X56619047Y-55578942D02*
X56571428Y-55674180D01*
X56571428Y-55674180D02*
X56523809Y-55721800D01*
X56523809Y-55721800D02*
X56428571Y-55769419D01*
X56428571Y-55769419D02*
X56333333Y-55769419D01*
X56333333Y-55769419D02*
X56238095Y-55721800D01*
X56238095Y-55721800D02*
X56190476Y-55674180D01*
X56190476Y-55674180D02*
X56142857Y-55578942D01*
X56142857Y-55578942D02*
X56095238Y-55388466D01*
X56095238Y-55388466D02*
X56095238Y-55150371D01*
X56095238Y-55150371D02*
X56142857Y-54959895D01*
X56142857Y-54959895D02*
X56190476Y-54864657D01*
X56190476Y-54864657D02*
X56238095Y-54817038D01*
X56238095Y-54817038D02*
X56333333Y-54769419D01*
X57142857Y-55769419D02*
X57333333Y-55769419D01*
X57333333Y-55769419D02*
X57428571Y-55721800D01*
X57428571Y-55721800D02*
X57476190Y-55674180D01*
X57476190Y-55674180D02*
X57571428Y-55531323D01*
X57571428Y-55531323D02*
X57619047Y-55340847D01*
X57619047Y-55340847D02*
X57619047Y-54959895D01*
X57619047Y-54959895D02*
X57571428Y-54864657D01*
X57571428Y-54864657D02*
X57523809Y-54817038D01*
X57523809Y-54817038D02*
X57428571Y-54769419D01*
X57428571Y-54769419D02*
X57238095Y-54769419D01*
X57238095Y-54769419D02*
X57142857Y-54817038D01*
X57142857Y-54817038D02*
X57095238Y-54864657D01*
X57095238Y-54864657D02*
X57047619Y-54959895D01*
X57047619Y-54959895D02*
X57047619Y-55197990D01*
X57047619Y-55197990D02*
X57095238Y-55293228D01*
X57095238Y-55293228D02*
X57142857Y-55340847D01*
X57142857Y-55340847D02*
X57238095Y-55388466D01*
X57238095Y-55388466D02*
X57428571Y-55388466D01*
X57428571Y-55388466D02*
X57523809Y-55340847D01*
X57523809Y-55340847D02*
X57571428Y-55293228D01*
X57571428Y-55293228D02*
X57619047Y-55197990D01*
D10*
X22214285Y-45954819D02*
X22214285Y-46669104D01*
X22214285Y-46669104D02*
X22166666Y-46811961D01*
X22166666Y-46811961D02*
X22071428Y-46907200D01*
X22071428Y-46907200D02*
X21928571Y-46954819D01*
X21928571Y-46954819D02*
X21833333Y-46954819D01*
X23214285Y-46954819D02*
X22642857Y-46954819D01*
X22928571Y-46954819D02*
X22928571Y-45954819D01*
X22928571Y-45954819D02*
X22833333Y-46097676D01*
X22833333Y-46097676D02*
X22738095Y-46192914D01*
X22738095Y-46192914D02*
X22642857Y-46240533D01*
X23833333Y-45954819D02*
X23928571Y-45954819D01*
X23928571Y-45954819D02*
X24023809Y-46002438D01*
X24023809Y-46002438D02*
X24071428Y-46050057D01*
X24071428Y-46050057D02*
X24119047Y-46145295D01*
X24119047Y-46145295D02*
X24166666Y-46335771D01*
X24166666Y-46335771D02*
X24166666Y-46573866D01*
X24166666Y-46573866D02*
X24119047Y-46764342D01*
X24119047Y-46764342D02*
X24071428Y-46859580D01*
X24071428Y-46859580D02*
X24023809Y-46907200D01*
X24023809Y-46907200D02*
X23928571Y-46954819D01*
X23928571Y-46954819D02*
X23833333Y-46954819D01*
X23833333Y-46954819D02*
X23738095Y-46907200D01*
X23738095Y-46907200D02*
X23690476Y-46859580D01*
X23690476Y-46859580D02*
X23642857Y-46764342D01*
X23642857Y-46764342D02*
X23595238Y-46573866D01*
X23595238Y-46573866D02*
X23595238Y-46335771D01*
X23595238Y-46335771D02*
X23642857Y-46145295D01*
X23642857Y-46145295D02*
X23690476Y-46050057D01*
X23690476Y-46050057D02*
X23738095Y-46002438D01*
X23738095Y-46002438D02*
X23833333Y-45954819D01*
X25119047Y-46954819D02*
X24547619Y-46954819D01*
X24833333Y-46954819D02*
X24833333Y-45954819D01*
X24833333Y-45954819D02*
X24738095Y-46097676D01*
X24738095Y-46097676D02*
X24642857Y-46192914D01*
X24642857Y-46192914D02*
X24547619Y-46240533D01*
D11*
%TO.C,J107*%
X33270000Y-50000000D02*
G75*
G03*
X30730000Y-50000000I-1270000J0D01*
G01*
X30730000Y-50000000D02*
G75*
G03*
X33270000Y-50000000I1270000J0D01*
G01*
%TO.C,J106*%
X64020000Y-72084000D02*
G75*
G03*
X61480000Y-72084000I-1270000J0D01*
G01*
X61480000Y-72084000D02*
G75*
G03*
X64020000Y-72084000I1270000J0D01*
G01*
%TO.C,J104*%
X25770000Y-50000000D02*
G75*
G03*
X23230000Y-50000000I-1270000J0D01*
G01*
X23230000Y-50000000D02*
G75*
G03*
X25770000Y-50000000I1270000J0D01*
G01*
%TO.C,J105*%
X64020000Y-27916000D02*
G75*
G03*
X61480000Y-27916000I-1270000J0D01*
G01*
X61480000Y-27916000D02*
G75*
G03*
X64020000Y-27916000I1270000J0D01*
G01*
%TO.C,J108*%
X58770000Y-37010000D02*
G75*
G03*
X56230000Y-37010000I-1270000J0D01*
G01*
X56230000Y-37010000D02*
G75*
G03*
X58770000Y-37010000I1270000J0D01*
G01*
D12*
%TO.C,J102*%
X64132891Y-27940814D02*
X64236814Y-28000814D01*
X64236814Y-28000814D02*
X65566814Y-25697186D01*
X62598186Y-25519000D02*
X63263186Y-24367186D01*
X63263186Y-24367186D02*
X64415000Y-25032186D01*
X65462891Y-25637186D02*
X65566814Y-25697186D01*
%TO.C,J103*%
X62037109Y-73269186D02*
X61933186Y-73329186D01*
X61933186Y-73329186D02*
X63263186Y-75632814D01*
X64901814Y-73151000D02*
X65566814Y-74302814D01*
X65566814Y-74302814D02*
X64415000Y-74967814D01*
X63367109Y-75572814D02*
X63263186Y-75632814D01*
D11*
%TO.C,J109*%
X57270000Y-60392000D02*
G75*
G03*
X54730000Y-60392000I-1270000J0D01*
G01*
X54730000Y-60392000D02*
G75*
G03*
X57270000Y-60392000I1270000J0D01*
G01*
D12*
%TO.C,J101*%
X21170000Y-51210000D02*
X21170000Y-51330000D01*
X21170000Y-51330000D02*
X23830000Y-51330000D01*
X22500000Y-48670000D02*
X23830000Y-48670000D01*
X23830000Y-48670000D02*
X23830000Y-50000000D01*
X23830000Y-51210000D02*
X23830000Y-51330000D01*
%TD*%
M02*
